<svg xmlns="http://www.w3.org/2000/svg" viewBox="0 0 409.72 520"><defs><style>.cls-1{fill:#fff;stroke:#000;stroke-miterlimit:10;stroke-width:8px;}.cls-2{fill:#231815;}</style></defs><g id="レイヤー_2" data-name="レイヤー 2"><g id="_2" data-name=" 2"><path class="cls-1" d="M204.86,4C93.92,4,4,93.93,4,204.87,4,273.32,38.65,333.23,90.55,370c47.35,33.59,57.81,41.61,74.46,73.4,13.17,25.15,34.54,69.28,34.54,69.28a5.94,5.94,0,0,0,10.62,0s21.37-44.13,34.54-69.28c16.64-31.79,27.11-39.81,74.46-73.4,51.91-36.81,86.55-96.72,86.55-165.17C405.72,93.93,315.78,4,204.86,4Z"/><path class="cls-2" d="M294.5,260.24a51.65,51.65,0,1,1,51.65-51.65h0A51.71,51.71,0,0,1,294.5,260.24Zm0-95.47a43.82,43.82,0,1,0,43.82,43.82,43.82,43.82,0,0,0-43.82-43.82Z"/><path class="cls-2" d="M231.21,167.1c-8.21,0-17.63-6.68-17.63-18.62,0-9,6.69-16.35,16.75-16.35,14.22,0,18.79,14,12.13,22.46,7.31-2,13.6-9.63,14.65-19.72h6.55C262,152,252,167.1,231.21,167.1Z"/><circle class="cls-2" cx="294.5" cy="208.59" r="32.2"/><rect class="cls-2" x="236.8" y="242.69" width="8.41" height="38.83" transform="translate(-114.74 247.18) rotate(-45)"/><path class="cls-2" d="M65.35,208.59A51.65,51.65,0,1,1,117,260.24h0A51.71,51.71,0,0,1,65.35,208.59Zm7.82,0A43.83,43.83,0,1,0,117,164.77h0A43.87,43.87,0,0,0,73.17,208.59Z"/><path class="cls-2" d="M180.29,167.1c8.21,0,17.62-6.68,17.62-18.62,0-9-6.69-16.35-16.75-16.35-14.21,0-18.79,14-12.12,22.46-7.31-2-13.6-9.63-14.65-19.72h-6.53C149.52,152,159.51,167.1,180.29,167.1Z"/><rect class="cls-2" x="151.07" y="257.9" width="38.83" height="8.41" transform="translate(-135.4 197.32) rotate(-45)"/></g></g></svg>