<svg id="レイヤー_1" data-name="レイヤー 1" xmlns="http://www.w3.org/2000/svg" viewBox="0 0 735.95 223.87"><defs><style>.cls-1{fill:#231815;}</style></defs><polygon class="cls-1" points="672.26 149.24 652.19 90.31 632.11 149.24 625.73 149.24 652.19 74.63 678.65 149.24 672.26 149.24"/><polygon class="cls-1" points="609.47 149.24 609.47 91.9 582.72 130.29 555.98 91.9 555.98 149.24 550.24 149.24 550.24 74.63 582.72 120.19 615.21 74.63 615.21 149.24 609.47 149.24"/><path class="cls-1" d="M181,83a13.59,13.59,0,0,1-13.28-14c0-6.76,5-12.31,12.62-12.31,10.71,0,14.16,10.51,9.13,16.92,5.51-1.54,10.25-7.25,11-14.86h4.93C204.2,71.65,196.67,83,181,83Z"/><path class="cls-1" d="M142.66,83a13.58,13.58,0,0,0,13.28-14c0-6.76-5-12.31-12.62-12.31-10.71,0-14.15,10.51-9.13,16.92-5.51-1.54-10.25-7.25-11-14.86h-4.93C119.48,71.65,127,83,142.66,83Z"/></svg>