<svg xmlns="http://www.w3.org/2000/svg" viewBox="0 0 622.56 110.49"><defs><style>.cls-1{fill:#231815;}</style></defs><g id="レイヤー_2" data-name="レイヤー 2"><g id="レイヤー_1-2" data-name="レイヤー 1"><polygon class="cls-1" points="616.18 92.55 596.1 33.62 576.03 92.55 569.64 92.55 596.1 17.94 622.57 92.55 616.18 92.55"/><path class="cls-1" d="M401.79,67.88l21.15,24.67h-8.15l-23-28c9.9.18,21.21-6.43,21.21-18.32,0-11.5-10.41-19.32-28.25-20.28V92.55H379V20.34c26.15,0,39.75,10.06,39.75,25.88C418.79,56.44,412.2,65.85,401.79,67.88Z"/><polygon class="cls-1" points="362.14 92.55 342.07 33.62 322 92.55 315.61 92.55 342.07 17.94 368.53 92.55 362.14 92.55"/><polygon class="cls-1" points="553.38 92.55 553.38 35.21 526.64 73.6 499.9 35.21 499.9 92.55 494.15 92.55 494.15 17.94 526.64 63.5 559.13 17.94 559.13 92.55 553.38 92.55"/><path class="cls-1" d="M270.6,57.61V20.34c39.82.67,42.94,28.71,42.94,37.27s-3.12,36.6-42.94,37.27Zm5.75,0V89c20.48-1.91,31.13-13,31.13-31.43s-10.65-29.52-31.13-31.43Z"/><path class="cls-1" d="M455.5,94.22a24.08,24.08,0,0,1-24.06-24.06V22h5.74V70.16a18.32,18.32,0,0,0,36.63,0V22h5.74V70.16A24.08,24.08,0,0,1,455.5,94.22Z"/><path class="cls-1" d="M172.62,96.5a38.91,38.91,0,1,1,38.9-38.91A39,39,0,0,1,172.62,96.5Zm0-71.92a33,33,0,1,0,33,33A33,33,0,0,0,172.62,24.58Z"/><path class="cls-1" d="M124.94,26.34a13.59,13.59,0,0,1-13.28-14c0-6.76,5-12.31,12.62-12.31,10.71,0,14.15,10.5,9.13,16.91,5.51-1.53,10.25-7.25,11-14.85h4.93C148.12,15,140.59,26.34,124.94,26.34Z"/><circle class="cls-1" cx="172.62" cy="57.59" r="24.26"/><rect class="cls-1" x="129.15" y="83.28" width="6.34" height="29.25" transform="translate(-30.48 122.24) rotate(-45)"/><path class="cls-1" d="M0,57.59A38.91,38.91,0,1,1,38.9,96.5,38.94,38.94,0,0,1,0,57.59Zm5.9,0a33,33,0,1,0,33-33A33,33,0,0,0,5.9,57.59Z"/><path class="cls-1" d="M86.58,26.34a13.59,13.59,0,0,0,13.28-14C99.86,5.55,94.82,0,87.24,0,76.53,0,73.09,10.5,78.11,16.91c-5.51-1.53-10.25-7.25-11-14.85H62.14C63.4,15,70.93,26.34,86.58,26.34Z"/><rect class="cls-1" x="64.58" y="94.74" width="29.25" height="6.34" transform="translate(-46.03 84.68) rotate(-45)"/></g></g></svg>