<svg id="レイヤー_1" data-name="レイヤー 1" xmlns="http://www.w3.org/2000/svg" viewBox="0 0 735.95 223.87"><defs><style>.cls-1{fill:#231815;}</style></defs><path class="cls-1" d="M457.87,124.58,479,149.24h-8.15l-22.95-28c9.89.18,21.2-6.43,21.2-18.32,0-11.5-10.41-19.32-28.25-20.28v66.61h-5.75V77c26.16,0,39.75,10.07,39.75,25.88C474.87,113.14,468.28,122.54,457.87,124.58Z"/><path class="cls-1" d="M511.58,150.91a24.09,24.09,0,0,1-24.06-24V78.69h5.75v48.17a18.31,18.31,0,0,0,36.62,0V78.69h5.75v48.17A24.09,24.09,0,0,1,511.58,150.91Z"/><rect class="cls-1" x="185.23" y="139.97" width="6.34" height="29.25" transform="translate(-54.14 178.5) rotate(-45)"/><rect class="cls-1" x="120.66" y="151.43" width="29.25" height="6.34" transform="translate(-69.69 140.95) rotate(-45)"/></svg>