<svg id="レイヤー_1" data-name="レイヤー 1" xmlns="http://www.w3.org/2000/svg" viewBox="0 0 735.95 223.87"><defs><style>.cls-1{fill:#231815;}</style></defs><polygon class="cls-1" points="418.22 149.24 398.15 90.31 378.08 149.24 371.69 149.24 398.15 74.63 424.61 149.24 418.22 149.24"/><path class="cls-1" d="M326.69,114.3V77c39.81.67,42.94,28.71,42.94,37.27s-3.13,36.6-42.94,37.27Zm5.74,0v31.43c20.49-1.91,31.13-13,31.13-31.43s-10.64-29.52-31.13-31.43Z"/><path class="cls-1" d="M228.7,153.19a38.91,38.91,0,1,1,38.9-38.9A38.94,38.94,0,0,1,228.7,153.19Zm0-71.91a33,33,0,1,0,33,33A33,33,0,0,0,228.7,81.28Z"/><path class="cls-1" d="M56.08,114.29A38.91,38.91,0,1,1,95,153.19,38.95,38.95,0,0,1,56.08,114.29Zm5.9,0a33,33,0,1,0,33-33A33,33,0,0,0,62,114.29Z"/></svg>